<svg height="512" viewBox="0 0 26 60" width="512" xmlns="http://www.w3.org/2000/svg"><g id="Page-1" fill="none" fill-rule="evenodd"><g id="004---Fairing" fill="rgb(0,0,0)" fill-rule="nonzero" transform="translate(-1 -1)"><path id="Shape" d="m5 56.35v2.65c0 1.1045695.8954305 2 2 2h14c1.1045695 0 2-.8954305 2-2v-2.65l2.466-3.082c.9902544-1.2408114 1.5309727-2.7804839 1.534-4.368v-23.616c.0877476-8.6039354-3.3496979-16.86890875-9.513-22.873-1.9429272-1.88405636-5.0310728-1.88405636-6.974 0-6.1633021 6.00409125-9.60074761 14.2690646-9.513 22.873v23.616c.00212324 1.5888885.54289233 3.1301157 1.534 4.372zm16 2.65h-14v-2h14zm-18-33.716c-.02273685-2.6444725.30443414-5.2803341.973-7.839 1.40291449-5.148743 4.13691473-9.83727576 7.927-13.594 1.1695483-1.1360148 3.0304517-1.1360148 4.2 0 3.7904493 3.75660816 6.5248006 8.4451514 7.928 13.594.6682286 2.558711.9950632 5.1945719.972 7.839v23.616c-.0027692 1.1354718-.390557 2.2364367-1.1 3.123l-2.38 2.977h-15.04l-2.38-2.981c-.70859-.8854908-1.09632689-1.9849011-1.1-3.119z"/><path id="Shape" d="m6 49.9c.55228475 0 1-.4477153 1-1v-23.616c0-.5522847-.44771525-1-1-1s-1 .4477153-1 1v23.616c0 .5522847.44771525 1 1 1z"/></g></g></svg>